<?xml version="1.0" standalone="no"?>
<!DOCTYPE svg PUBLIC "-//W3C//DTD SVG 20010904//EN"
 "http://www.w3.org/TR/2001/REC-SVG-20010904/DTD/svg10.dtd">
<svg version="1.0" xmlns="http://www.w3.org/2000/svg"
 width="907.000000pt" height="907.000000pt" viewBox="0 0 907.000000 907.000000"
 preserveAspectRatio="xMidYMid meet">
<metadata>
Created by potrace 1.11, written by Peter Selinger 2001-2013
</metadata>
<g transform="translate(0.000000,907.000000) scale(0.100000,-0.100000)"
fill="#000000" stroke="none">
<path d="M4235 8984 c-16 -2 -86 -9 -155 -15 -161 -14 -429 -59 -595 -99
-1002 -245 -1892 -831 -2519 -1659 -416 -549 -713 -1228 -831 -1901 -51 -290
-60 -410 -60 -790 0 -380 9 -500 60 -790 133 -757 469 -1472 983 -2093 103
-125 353 -379 486 -494 617 -532 1367 -891 2146 -1028 290 -51 410 -60 790
-60 380 0 500 9 790 60 1096 193 2100 810 2784 1714 416 549 713 1228 831
1901 51 290 60 410 60 790 0 380 -9 500 -60 790 -133 757 -469 1472 -983 2093
-103 125 -353 379 -486 494 -693 597 -1516 960 -2426 1069 -127 15 -736 29
-815 18z m702 -1278 c595 -77 1133 -304 1604 -676 134 -106 403 -375 509 -509
373 -473 596 -1001 677 -1609 24 -177 24 -607 0 -784 -81 -608 -304 -1136
-677 -1609 -106 -134 -375 -403 -509 -509 -473 -373 -1001 -596 -1609 -677
-177 -24 -607 -24 -784 0 -608 81 -1136 304 -1609 677 -134 106 -403 375 -509
509 -373 473 -596 1001 -677 1609 -24 177 -24 607 0 784 81 608 304 1136 677
1609 106 134 375 403 509 509 520 410 1087 631 1781 694 97 9 501 -3 617 -18z"/>
<path d="M4315 6748 c-421 -42 -868 -230 -1193 -502 -112 -93 -281 -272 -368
-388 -655 -879 -577 -2102 183 -2889 194 -200 382 -339 624 -458 617 -306
1351 -306 1968 0 242 119 430 258 624 458 836 865 836 2237 0 3102 -132 137
-227 217 -375 315 -422 283 -952 414 -1463 362z"/>
</g>
</svg>
